<svg xmlns="http://www.w3.org/2000/svg" viewBox="0 0 48.37 44.4"><defs><style>.cls-1{fill:#006bb4;}.cls-1,.cls-2{fill-rule:evenodd;}.cls-2{fill:#f28700;}</style></defs><title>Logo</title><g id="Layer_2" data-name="Layer 2"><g id="Layer_1-2" data-name="Layer 1"><path class="cls-1" d="M48.37,36.9a14.7,14.7,0,0,1-5.67.94A10.25,10.25,0,0,1,35,35a10.39,10.39,0,0,1-2.79-7.61A10.79,10.79,0,0,1,43.52,16a16,16,0,0,1,4.85.65v4.49a9.38,9.38,0,0,0-4.46-1.05A6.43,6.43,0,0,0,39.09,22,6.91,6.91,0,0,0,37.26,27,6.8,6.8,0,0,0,39,31.92a6.12,6.12,0,0,0,4.66,1.82,10.09,10.09,0,0,0,4.72-1.14Z"/><path class="cls-1" d="M.09,36.67V32a9.34,9.34,0,0,0,2.79,1.61,9.18,9.18,0,0,0,3,.53,6.69,6.69,0,0,0,1.58-.16,3.49,3.49,0,0,0,1.12-.45,1.87,1.87,0,0,0,.67-.67A1.66,1.66,0,0,0,9.51,32a1.78,1.78,0,0,0-.35-1.1,3.85,3.85,0,0,0-1-.9,9,9,0,0,0-1.46-.79c-.55-.26-1.16-.52-1.81-.79a9.22,9.22,0,0,1-3.7-2.51A5.5,5.5,0,0,1,0,22.29a5.72,5.72,0,0,1,.66-2.83,5.85,5.85,0,0,1,1.81-2,8.44,8.44,0,0,1,2.65-1.12A13.76,13.76,0,0,1,8.32,16a19.55,19.55,0,0,1,2.93.2,11.81,11.81,0,0,1,2.36.61v4.4a8.09,8.09,0,0,0-1.16-.65,10,10,0,0,0-1.3-.46,7.73,7.73,0,0,0-1.32-.27,9.16,9.16,0,0,0-1.24-.09,6.67,6.67,0,0,0-1.48.15A3.65,3.65,0,0,0,6,20.35a2.29,2.29,0,0,0-.71.67,1.64,1.64,0,0,0-.25.87,1.71,1.71,0,0,0,.28.95,3.56,3.56,0,0,0,.8.8,9.37,9.37,0,0,0,1.26.73c.49.24,1,.49,1.67.75a18,18,0,0,1,2.28,1.12A8.2,8.2,0,0,1,13,27.58a5.18,5.18,0,0,1,1.11,1.72,3.93,3.93,0,0,1,.14.41L7.41,37.8c-.42,0-.85,0-1.28,0a18.45,18.45,0,0,1-3.31-.29A10.3,10.3,0,0,1,.09,36.67Z"/><polygon class="cls-2" points="31.03 11.76 3.25 44.4 22.99 37.88 22.99 25.35 29.38 24.26 29.38 25.32 23.96 26.29 23.96 35.95 31.03 37.89 31.03 11.76"/><path class="cls-1" d="M13.52,25.53c.44-.82.9-1.63,1.38-2.44.9-1.54,1.83-3,2.81-4.47,4.46-6.65,9.41-11.9,14-15.08C36.57.11,41.16-1,44.52,1l.35.22c3.53,2.35,4,7.13,3.06,11.6,0-4.14-1.27-7.4-3.87-8.95A7.37,7.37,0,0,0,39.27,3c-6.26.62-16,8.47-24,20C14.66,23.79,14.08,24.66,13.52,25.53Z"/></g></g></svg>